<svg width="1000" height="1000" viewBox="0 0 1000 1000" xmlns="http://www.w3.org/2000/svg"><defs/><path fill="#fe1620" transform="matrix(0.5800904255261428 0 0 0.5800904255261428 88.02148262397401 10.724186224442963)" d="M 597.5285128018 654.68945597796 C 597.5285128018 654.68945597796 597.4285128018 654.88945597796 597.5285128018 654.68945597796 C 604.7285128018 629.68945597796 618.8285128018 607.08945597796 638.7285128018 590.18945597796 C 658.6285128018 573.18945597796 683.1285128018 562.58945597796 709.0285128018 559.58945597796 C 737.6285128018 556.28945597796 766.9285128018 561.38945597796 792.6285128018 574.48945597796 C 817.9285128018 587.38945597796 839.2285128018 607.78945597796 853.1285128018 632.58945597796 C 866.3285128018 656.08945597796 872.1285128018 682.88945597796 871.5285128018 709.78945597796 C 870.8285128018 738.68945597796 862.7285128018 767.38945597796 847.9285128018 792.28945597796 C 834.2285128018 815.38945597796 815.1285128018 835.08945597796 791.9285128018 848.68945597796 C 779.2285128018 856.18945597796 765.3285128018 861.68945597796 751.0285128018 864.98945597796 C 738.9285128018 867.78945597796 726.4285128018 868.88945597796 714.0285128018 868.98945597796 C 684.8285128018 869.18945597796 655.6285128018 862.58945597796 629.8285128018 848.68945597796 C 604.3285128018 834.98945597796 582.9285128018 814.08945597796 568.9285128018 788.78945597796 C 561.6285128018 775.68945597796 556.4285128018 761.58945597796 553.0285128018 746.98945597796 C 549.6285128018 732.28945597796 548.1285128018 716.98945597796 549.1285128018 701.98945597796 C 552.6285128018 651.78945597796 588.6285128018 610.78945597796 602.1285128018 606.58945597796 C 602.1285128018 606.58945597796 598.8285128018 611.88945597796 597.7285128018 613.78945597796 C 591.9285128018 623.38945597796 587.4285128018 633.58945597796 584.2285128018 644.38945597796 C 580.3285128018 657.48945597796 578.3285128018 671.08945597796 578.5285128018 684.78945597796 C 578.6285128018 691.58945597796 579.2285128018 698.48945597796 580.5285128018 705.18945597796 C 582.0285128018 713.58945597796 584.4285128018 721.08945597796 587.6285128018 728.98945597796 C 589.0285128018 732.38945597796 590.5285128018 735.68945597796 592.1285128018 738.98945597796 C 595.1285128018 745.18945597796 598.7285128018 751.18945597796 602.7285128018 756.78945597796 C 610.3285128018 767.48945597796 619.6285128018 776.98945597796 630.3285128018 784.48945597796 C 640.6285128018 791.68945597796 652.2285128018 797.08945597796 664.3285128018 800.38945597796 C 677.8285128018 803.98945597796 691.9285128018 804.88945597796 705.7285128018 803.58945597796 C 711.2285128018 803.08945597796 716.7285128018 802.08945597796 722.1285128018 800.88945597796 C 730.1285128018 799.18945597796 737.8285128018 796.28945597796 744.9285128018 792.08945597796 C 750.8285128018 788.58945597796 756.2285128018 784.38945597796 761.0285128018 779.48945597796 C 770.7285128018 769.58945597796 777.8285128018 757.38945597796 781.9285128018 744.28945597796 C 784.5285128018 736.08945597796 785.9285128018 727.58945597796 786.1285128018 719.08945597796 C 786.4285128018 705.88945597796 783.8285128018 691.98945597796 776.6285128018 680.78945597796 C 773.0285128018 675.28945597796 768.5285128018 670.38945597796 763.2285128018 666.58945597796 C 748.6285128018 655.78945597796 726.8285128018 651.78945597796 710.8285128018 661.58945597796 C 707.8285128018 663.38945597796 705.2285128018 665.68945597796 703.0285128018 668.38945597796 C 699.6285128018 672.48945597796 697.4285128018 677.18945597796 696.0285128018 682.28945597796 C 693.1285128018 692.78945597796 687.1285128018 702.08945597796 678.6285128018 708.88945597796 C 661.2285128018 722.78945597796 636.1285128018 723.68945597796 617.8285128018 711.08945597796 C 609.1285128018 705.08945597796 602.4285128018 696.38945597796 598.7285128018 686.48945597796 C 594.8285128018 676.28945597796 594.5285128018 665.18945597796 597.5285128018 654.68945597796 Z"/><path fill="#3f8631" transform="matrix(0.5800904255261428 0 0 0.5800904255261428 88.02148262397401 10.724186224442963)" d="M 769.5285128018 434.08945597796 C 723.7285128018 459.48945597796 727.0285128018 509.88945597796 740.5285128018 534.28945597796 C 750.2285128018 512.48945597796 774.1285128018 469.78945597796 823.7285128018 437.88945597796 C 823.7285128018 437.88945597796 771.5285128018 481.98945597796 748.8285128018 537.48945597796 C 760.2285128018 535.38945597796 786.3285128018 529.28945597796 806.1285128018 514.88945597796 C 841.3285128018 489.18945597796 844.4285128018 459.18945597796 854.8285128018 419.88945597796 C 854.8285128018 419.88945597796 798.3285128018 418.08945597796 769.5285128018 434.08945597796 Z"/><path fill="#3f8631" transform="matrix(0.5800904255261428 0 0 0.5800904255261428 88.02148262397401 10.724186224442963)" d="M 683.9285128018 451.48945597796 C 722.0285128018 472.58945597796 719.2285128018 514.48945597796 708.0285128018 534.78945597796 C 700.0285128018 516.68945597796 680.0285128018 481.18945597796 638.8285128018 454.58945597796 C 638.8285128018 454.58945597796 682.2285128018 491.28945597796 701.1285128018 537.38945597796 C 691.6285128018 535.68945597796 669.9285128018 530.58945597796 653.5285128018 518.58945597796 C 624.2285128018 497.18945597796 621.7285128018 472.18945597796 613.0285128018 439.58945597796 C 613.0285128018 439.68945597796 659.9285128018 438.18945597796 683.9285128018 451.48945597796 Z"/><path id="text" transform="matrix(1.572496585435986 0 0 1.572496585435986 -9.057580332111279 513.0886966232791)" d="M 101.14971428571 129.80448645822 C 101.14971428571 126.15648645822 102.01371428571 119.72448645822 103.74171428571 110.50848645822 C 105.46971428571 101.29248645822 106.52571428571 95.46848645822 106.90971428571 93.03648645822 L 101.82171428571 82.76448645822 C 109.94971428571 78.15648645822 116.86171428571 75.85248645822 122.55771428571 75.85248645822 C 125.37371428571 75.85248645822 127.48571428571 76.81248645822 128.89371428571 78.73248645822 C 134.20571428571 76.87648645822 139.10171428571 75.94848645822 143.58171428571 75.94848645822 C 151.90171428571 75.94848645822 158.36571428571 78.65248645822 162.97371428571 84.06048645822 C 167.58171428571 89.46848645822 169.88571428571 96.20448645822 169.88571428571 104.26848645822 C 169.88571428571 114.89248645822 165.98171428571 124.65248645822 158.17371428571 133.54848645822 C 154.39771428571 137.83648645822 149.42171428571 141.29248645822 143.24571428571 143.91648645822 C 137.06971428571 146.54048645822 130.46171428571 147.85248645822 123.42171428571 147.85248645822 C 116.38171428571 147.85248645822 110.90971428571 146.30048645822 107.00571428571 143.19648645822 C 103.10171428571 140.09248645822 101.14971428571 135.62848645822 101.14971428571 129.80448645822 Z M 121.50171428571 133.45248645822 C 122.84571428571 133.70848645822 124.34971428571 133.83648645822 126.01371428571 133.83648645822 C 132.98971428571 133.83648645822 138.42971428571 131.32448645822 142.33371428571 126.30048645822 C 146.23771428571 121.27648645822 148.18971428571 115.08448645822 148.18971428571 107.72448645822 C 148.18971428571 101.77248645822 146.84571428571 97.03648645822 144.15771428571 93.51648645822 C 141.46971428571 89.99648645822 137.59771428571 88.23648645822 132.54171428571 88.23648645822 C 131.77371428571 88.23648645822 130.49371428571 88.36448645822 128.70171428571 88.62048645822 C 128.25371428571 91.88448645822 127.08571428571 99.16448645822 125.19771428571 110.46048645822 C 123.30971428571 121.75648645822 122.07771428571 129.42048645822 121.50171428571 133.45248645822 Z M 206.07771428571 133.64448645822 L 205.11771428571 133.16448645822 C 203.38971428571 137.77248645822 200.90971428571 141.37248645822 197.67771428571 143.96448645822 C 194.44571428571 146.55648645822 190.84571428571 147.85248645822 186.87771428571 147.85248645822 C 181.43771428571 147.85248645822 177.08571428571 145.80448645822 173.82171428571 141.70848645822 C 170.55771428571 137.61248645822 168.92571428571 132.14048645822 168.92571428571 125.29248645822 C 168.92571428571 114.66848645822 172.49371428571 105.77248645822 179.62971428571 98.60448645822 C 186.76571428571 91.43648645822 195.64571428571 87.85248645822 206.26971428571 87.85248645822 C 209.02171428571 87.85248645822 211.54971428571 88.10848645822 213.85371428571 88.62048645822 C 214.23771428571 90.41248645822 214.46171428571 91.98048645822 214.52571428571 93.32448645822 C 217.72571428571 91.27648645822 221.02171428571 90.25248645822 224.41371428571 90.25248645822 C 229.08571428571 90.25248645822 231.42171428571 92.78048645822 231.42171428571 97.83648645822 C 231.42171428571 99.62848645822 230.41371428571 105.03648645822 228.39771428571 114.06048645822 C 226.38171428571 123.08448645822 225.37371428571 129.77248645822 225.37371428571 134.12448645822 C 225.37371428571 138.47648645822 226.36571428571 141.48448645822 228.34971428571 143.14848645822 C 224.76571428571 146.28448645822 221.03771428571 147.85248645822 217.16571428571 147.85248645822 C 213.29371428571 147.85248645822 210.47771428571 146.70048645822 208.71771428571 144.39648645822 C 206.95771428571 142.09248645822 206.07771428571 138.50848645822 206.07771428571 133.64448645822 Z M 186.97371428571 120.58848645822 C 186.97371428571 123.72448645822 187.62971428571 126.14048645822 188.94171428571 127.83648645822 C 190.25371428571 129.53248645822 192.12571428571 130.38048645822 194.55771428571 130.38048645822 C 196.98971428571 130.38048645822 199.38971428571 129.48448645822 201.75771428571 127.69248645822 C 204.12571428571 125.90048645822 206.10971428571 123.43648645822 207.70971428571 120.30048645822 C 208.28571428571 113.83648645822 209.53371428571 106.18848645822 211.45371428571 97.35648645822 C 204.98971428571 97.35648645822 199.29371428571 99.69248645822 194.36571428571 104.36448645822 C 189.43771428571 109.03648645822 186.97371428571 114.44448645822 186.97371428571 120.58848645822 Z M 236.70171428571 129.80448645822 C 236.70171428571 126.15648645822 237.56571428571 119.72448645822 239.29371428571 110.50848645822 C 241.02171428571 101.29248645822 242.07771428571 95.46848645822 242.46171428571 93.03648645822 L 237.37371428571 82.76448645822 C 245.50171428571 78.15648645822 252.41371428571 75.85248645822 258.10971428571 75.85248645822 C 260.92571428571 75.85248645822 263.03771428571 76.81248645822 264.44571428571 78.73248645822 C 269.75771428571 76.87648645822 274.65371428571 75.94848645822 279.13371428571 75.94848645822 C 287.45371428571 75.94848645822 293.91771428571 78.65248645822 298.52571428571 84.06048645822 C 303.13371428571 89.46848645822 305.43771428571 96.20448645822 305.43771428571 104.26848645822 C 305.43771428571 114.89248645822 301.53371428571 124.65248645822 293.72571428571 133.54848645822 C 289.94971428571 137.83648645822 284.97371428571 141.29248645822 278.79771428571 143.91648645822 C 272.62171428571 146.54048645822 266.01371428571 147.85248645822 258.97371428571 147.85248645822 C 251.93371428571 147.85248645822 246.46171428571 146.30048645822 242.55771428571 143.19648645822 C 238.65371428571 140.09248645822 236.70171428571 135.62848645822 236.70171428571 129.80448645822 Z M 257.05371428571 133.45248645822 C 258.39771428571 133.70848645822 259.90171428571 133.83648645822 261.56571428571 133.83648645822 C 268.54171428571 133.83648645822 273.98171428571 131.32448645822 277.88571428571 126.30048645822 C 281.78971428571 121.27648645822 283.74171428571 115.08448645822 283.74171428571 107.72448645822 C 283.74171428571 101.77248645822 282.39771428571 97.03648645822 279.70971428571 93.51648645822 C 277.02171428571 89.99648645822 273.14971428571 88.23648645822 268.09371428571 88.23648645822 C 267.32571428571 88.23648645822 266.04571428571 88.36448645822 264.25371428571 88.62048645822 C 263.80571428571 91.88448645822 262.63771428571 99.16448645822 260.74971428571 110.46048645822 C 258.86171428571 121.75648645822 257.62971428571 129.42048645822 257.05371428571 133.45248645822 Z M 333.08571428571 78.97248645822 C 330.52571428571 80.73248645822 327.61371428571 81.61248645822 324.34971428571 81.61248645822 C 321.08571428571 81.61248645822 318.50971428571 80.97248645822 316.62171428571 79.69248645822 C 314.73371428571 78.41248645822 313.78971428571 76.68448645822 313.78971428571 74.50848645822 C 313.78971428571 71.56448645822 315.16571428571 69.26048645822 317.91771428571 67.59648645822 C 320.66971428571 65.93248645822 323.58171428571 65.10048645822 326.65371428571 65.10048645822 C 329.72571428571 65.10048645822 332.20571428571 65.74048645822 334.09371428571 67.02048645822 C 335.98171428571 68.30048645822 336.92571428571 70.17248645822 336.92571428571 72.63648645822 C 336.92571428571 75.10048645822 335.64571428571 77.21248645822 333.08571428571 78.97248645822 Z M 309.56571428571 144.87648645822 C 307.77371428571 142.89248645822 306.87771428571 139.86848645822 306.87771428571 135.80448645822 C 306.87771428571 131.74048645822 308.92571428571 120.84448645822 313.02171428571 103.11648645822 L 307.64571428571 95.05248645822 C 315.64571428571 90.25248645822 321.94971428571 87.85248645822 326.55771428571 87.85248645822 C 329.18171428571 87.85248645822 331.03771428571 88.41248645822 332.12571428571 89.53248645822 C 333.21371428571 90.65248645822 333.75771428571 92.46048645822 333.75771428571 94.95648645822 C 333.75771428571 95.91648645822 332.57371428571 101.54848645822 330.20571428571 111.85248645822 C 327.83771428571 122.15648645822 326.65371428571 129.51648645822 326.65371428571 133.93248645822 C 326.65371428571 138.34848645822 327.64571428571 141.42048645822 329.62971428571 143.14848645822 C 326.04571428571 146.28448645822 322.25371428571 147.85248645822 318.25371428571 147.85248645822 C 314.25371428571 147.85248645822 311.35771428571 146.86048645822 309.56571428571 144.87648645822 Z M 403.93371428571 144.34848645822 C 402.14171428571 141.94848645822 401.24571428571 138.41248645822 401.24571428571 133.74048645822 C 401.24571428571 129.06848645822 402.74971428571 118.31648645822 405.75771428571 101.48448645822 L 404.22171428571 101.48448645822 C 400.31771428571 106.60448645822 397.08571428571 112.71648645822 394.52571428571 119.82048645822 C 391.96571428571 126.92448645822 390.39771428571 133.32448645822 389.82171428571 139.02048645822 C 386.68571428571 141.96448645822 383.06971428571 143.43648645822 378.97371428571 143.43648645822 C 377.30971428571 143.43648645822 375.85371428571 142.84448645822 374.60571428571 141.66048645822 C 373.35771428571 140.47648645822 372.12571428571 138.41248645822 370.90971428571 135.46848645822 C 368.54171428571 129.51648645822 366.84571428571 118.18848645822 365.82171428571 101.48448645822 L 364.28571428571 101.48448645822 C 361.14971428571 115.24448645822 359.58171428571 124.94048645822 359.58171428571 130.57248645822 C 359.58171428571 136.20448645822 360.54171428571 140.55648645822 362.46171428571 143.62848645822 C 358.62171428571 146.50848645822 354.62171428571 147.94848645822 350.46171428571 147.94848645822 C 346.30171428571 147.94848645822 343.32571428571 146.74848645822 341.53371428571 144.34848645822 C 339.74171428571 141.94848645822 338.84571428571 138.36448645822 338.84571428571 133.59648645822 C 338.84571428571 128.82848645822 340.86171428571 115.30848645822 344.89371428571 93.03648645822 L 339.80571428571 82.76448645822 C 347.03771428571 78.09248645822 353.62971428571 75.75648645822 359.58171428571 75.75648645822 C 362.20571428571 75.75648645822 364.42971428571 76.02848645822 366.25371428571 76.57248645822 C 368.07771428571 77.11648645822 369.83771428571 78.15648645822 371.53371428571 79.69248645822 C 373.22971428571 81.22848645822 374.62171428571 83.37248645822 375.70971428571 86.12448645822 C 378.20571428571 92.33248645822 379.99771428571 101.38848645822 381.08571428571 113.29248645822 L 382.23771428571 113.29248645822 C 385.56571428571 103.50048645822 390.17371428571 95.08448645822 396.06171428571 88.04448645822 C 399.26171428571 84.26848645822 403.08571428571 81.29248645822 407.53371428571 79.11648645822 C 411.98171428571 76.94048645822 416.79771428571 75.85248645822 421.98171428571 75.85248645822 C 426.90971428571 75.85248645822 429.37371428571 78.82848645822 429.37371428571 84.78048645822 C 429.37371428571 86.76448645822 428.14171428571 94.14048645822 425.67771428571 106.90848645822 C 423.21371428571 119.67648645822 421.98171428571 127.27648645822 421.98171428571 129.70848645822 C 421.98171428571 135.91648645822 422.94171428571 140.55648645822 424.86171428571 143.62848645822 C 421.02171428571 146.50848645822 417.02171428571 147.94848645822 412.86171428571 147.94848645822 C 408.70171428571 147.94848645822 405.72571428571 146.74848645822 403.93371428571 144.34848645822 Z M 468.73371428571 133.64448645822 L 467.77371428571 133.16448645822 C 466.04571428571 137.77248645822 463.56571428571 141.37248645822 460.33371428571 143.96448645822 C 457.10171428571 146.55648645822 453.50171428571 147.85248645822 449.53371428571 147.85248645822 C 444.09371428571 147.85248645822 439.74171428571 145.80448645822 436.47771428571 141.70848645822 C 433.21371428571 137.61248645822 431.58171428571 132.14048645822 431.58171428571 125.29248645822 C 431.58171428571 114.66848645822 435.14971428571 105.77248645822 442.28571428571 98.60448645822 C 449.42171428571 91.43648645822 458.30171428571 87.85248645822 468.92571428571 87.85248645822 C 471.67771428571 87.85248645822 474.20571428571 88.10848645822 476.50971428571 88.62048645822 C 476.89371428571 90.41248645822 477.11771428571 91.98048645822 477.18171428571 93.32448645822 C 480.38171428571 91.27648645822 483.67771428571 90.25248645822 487.06971428571 90.25248645822 C 491.74171428571 90.25248645822 494.07771428571 92.78048645822 494.07771428571 97.83648645822 C 494.07771428571 99.62848645822 493.06971428571 105.03648645822 491.05371428571 114.06048645822 C 489.03771428571 123.08448645822 488.02971428571 129.77248645822 488.02971428571 134.12448645822 C 488.02971428571 138.47648645822 489.02171428571 141.48448645822 491.00571428571 143.14848645822 C 487.42171428571 146.28448645822 483.69371428571 147.85248645822 479.82171428571 147.85248645822 C 475.94971428571 147.85248645822 473.13371428571 146.70048645822 471.37371428571 144.39648645822 C 469.61371428571 142.09248645822 468.73371428571 138.50848645822 468.73371428571 133.64448645822 Z M 449.62971428571 120.58848645822 C 449.62971428571 123.72448645822 450.28571428571 126.14048645822 451.59771428571 127.83648645822 C 452.90971428571 129.53248645822 454.78171428571 130.38048645822 457.21371428571 130.38048645822 C 459.64571428571 130.38048645822 462.04571428571 129.48448645822 464.41371428571 127.69248645822 C 466.78171428571 125.90048645822 468.76571428571 123.43648645822 470.36571428571 120.30048645822 C 470.94171428571 113.83648645822 472.18971428571 106.18848645822 474.10971428571 97.35648645822 C 467.64571428571 97.35648645822 461.94971428571 99.69248645822 457.02171428571 104.36448645822 C 452.09371428571 109.03648645822 449.62971428571 114.44448645822 449.62971428571 120.58848645822 Z M 498.87771428571 135.94848645822 C 498.87771428571 133.38848645822 499.53371428571 128.42848645822 500.84571428571 121.06848645822 C 502.15771428571 113.70848645822 503.51771428571 106.98848645822 504.92571428571 100.90848645822 L 499.93371428571 93.22848645822 C 507.93371428571 89.64448645822 513.54971428571 87.85248645822 516.78171428571 87.85248645822 C 520.01371428571 87.85248645822 521.62971428571 89.90048645822 521.62971428571 93.99648645822 C 521.62971428571 96.23648645822 520.57371428571 100.90848645822 518.46171428571 108.01248645822 L 519.42171428571 108.49248645822 C 524.02971428571 94.73248645822 529.75771428571 87.85248645822 536.60571428571 87.85248645822 C 539.74171428571 87.85248645822 542.14171428571 88.81248645822 543.80571428571 90.73248645822 C 545.46971428571 92.65248645822 546.30171428571 94.79648645822 546.30171428571 97.16448645822 C 546.30171428571 100.68448645822 544.98971428571 103.69248645822 542.36571428571 106.18848645822 C 539.74171428571 108.68448645822 535.80571428571 109.93248645822 530.55771428571 109.93248645822 C 522.62171428571 109.93248645822 518.65371428571 118.09248645822 518.65371428571 134.41248645822 C 518.65371428571 138.38048645822 519.32571428571 141.29248645822 520.66971428571 143.14848645822 C 516.70171428571 146.28448645822 513.05371428571 147.85248645822 509.72571428571 147.85248645822 C 502.49371428571 147.85248645822 498.87771428571 143.88448645822 498.87771428571 135.94848645822 Z"/></svg>