<svg width="1000" height="1000" viewBox="0 0 1000 1000" xmlns="http://www.w3.org/2000/svg"><defs/><path fill="#fe1620" transform="matrix(0.5728319910222159 0 0 0.5728319910222159 100.60512625820039 10.909561381500446)" d="M 584.56009020139 656.43404640494 C 584.56009020139 656.43404640494 584.46009020139 656.63404640494 584.56009020139 656.43404640494 C 591.76009020139 631.43404640494 605.86009020139 608.83404640494 625.76009020139 591.93404640494 C 645.66009020139 574.93404640494 670.16009020139 564.33404640494 696.06009020139 561.33404640494 C 724.66009020139 558.03404640494 753.96009020139 563.13404640494 779.66009020139 576.23404640494 C 804.96009020139 589.13404640494 826.26009020139 609.53404640494 840.16009020139 634.33404640494 C 853.36009020139 657.83404640494 859.16009020139 684.63404640494 858.56009020139 711.53404640494 C 857.86009020139 740.43404640494 849.76009020139 769.13404640494 834.96009020139 794.03404640494 C 821.26009020139 817.13404640494 802.16009020139 836.83404640494 778.96009020139 850.43404640494 C 766.26009020139 857.93404640494 752.36009020139 863.43404640494 738.06009020139 866.73404640494 C 725.96009020139 869.53404640494 713.46009020139 870.63404640494 701.06009020139 870.73404640494 C 671.86009020139 870.93404640494 642.66009020139 864.33404640494 616.86009020139 850.43404640494 C 591.36009020139 836.73404640494 569.96009020139 815.83404640494 555.96009020139 790.53404640494 C 548.66009020139 777.43404640494 543.46009020139 763.33404640494 540.06009020139 748.73404640494 C 536.66009020139 734.03404640494 535.16009020139 718.73404640494 536.16009020139 703.73404640494 C 539.66009020139 653.53404640494 575.66009020139 612.53404640494 589.16009020139 608.33404640494 C 589.16009020139 608.33404640494 585.86009020139 613.63404640494 584.76009020139 615.53404640494 C 578.96009020139 625.13404640494 574.46009020139 635.33404640494 571.26009020139 646.13404640494 C 567.36009020139 659.23404640494 565.36009020139 672.83404640494 565.56009020139 686.53404640494 C 565.66009020139 693.33404640494 566.26009020139 700.23404640494 567.56009020139 706.93404640494 C 569.06009020139 715.33404640494 571.46009020139 722.83404640494 574.66009020139 730.73404640494 C 576.06009020139 734.13404640494 577.56009020139 737.43404640494 579.16009020139 740.73404640494 C 582.16009020139 746.93404640494 585.76009020139 752.93404640494 589.76009020139 758.53404640494 C 597.36009020139 769.23404640494 606.66009020139 778.73404640494 617.36009020139 786.23404640494 C 627.66009020139 793.43404640494 639.26009020139 798.83404640494 651.36009020139 802.13404640494 C 664.86009020139 805.73404640494 678.96009020139 806.63404640494 692.76009020139 805.33404640494 C 698.26009020139 804.83404640494 703.76009020139 803.83404640494 709.16009020139 802.63404640494 C 717.16009020139 800.93404640494 724.86009020139 798.03404640494 731.96009020139 793.83404640494 C 737.86009020139 790.33404640494 743.26009020139 786.13404640494 748.06009020139 781.23404640494 C 757.76009020139 771.33404640494 764.86009020139 759.13404640494 768.96009020139 746.03404640494 C 771.56009020139 737.83404640494 772.96009020139 729.33404640494 773.16009020139 720.83404640494 C 773.46009020139 707.63404640494 770.86009020139 693.73404640494 763.66009020139 682.53404640494 C 760.06009020139 677.03404640494 755.56009020139 672.13404640494 750.26009020139 668.33404640494 C 735.66009020139 657.53404640494 713.86009020139 653.53404640494 697.86009020139 663.33404640494 C 694.86009020139 665.13404640494 692.26009020139 667.43404640494 690.06009020139 670.13404640494 C 686.66009020139 674.23404640494 684.46009020139 678.93404640494 683.06009020139 684.03404640494 C 680.16009020139 694.53404640494 674.16009020139 703.83404640494 665.66009020139 710.63404640494 C 648.26009020139 724.53404640494 623.16009020139 725.43404640494 604.86009020139 712.83404640494 C 596.16009020139 706.83404640494 589.46009020139 698.13404640494 585.76009020139 688.23404640494 C 581.86009020139 678.03404640494 581.56009020139 666.93404640494 584.56009020139 656.43404640494 Z"/><path fill="#3f8631" transform="matrix(0.5728319910222159 0 0 0.5728319910222159 100.60512625820039 10.909561381500446)" d="M 756.56009020139 435.83404640494 C 710.76009020139 461.23404640494 714.06009020139 511.63404640494 727.56009020139 536.03404640494 C 737.26009020139 514.23404640494 761.16009020139 471.53404640494 810.76009020139 439.63404640494 C 810.76009020139 439.63404640494 758.56009020139 483.73404640494 735.86009020139 539.23404640494 C 747.26009020139 537.13404640494 773.36009020139 531.03404640494 793.16009020139 516.63404640494 C 828.36009020139 490.93404640494 831.46009020139 460.93404640494 841.86009020139 421.63404640494 C 841.86009020139 421.63404640494 785.36009020139 419.83404640494 756.56009020139 435.83404640494 Z"/><path fill="#3f8631" transform="matrix(0.5728319910222159 0 0 0.5728319910222159 100.60512625820039 10.909561381500446)" d="M 670.96009020139 453.23404640494 C 709.06009020139 474.33404640494 706.26009020139 516.23404640494 695.06009020139 536.53404640494 C 687.06009020139 518.43404640494 667.06009020139 482.93404640494 625.86009020139 456.33404640494 C 625.86009020139 456.33404640494 669.26009020139 493.03404640494 688.16009020139 539.13404640494 C 678.66009020139 537.43404640494 656.96009020139 532.33404640494 640.56009020139 520.33404640494 C 611.26009020139 498.93404640494 608.76009020139 473.93404640494 600.06009020139 441.33404640494 C 600.06009020139 441.43404640494 646.96009020139 439.93404640494 670.96009020139 453.23404640494 Z"/><path id="text" transform="matrix(1.7071135782077551 0 0 1.7071135782077551 -16.38829035079445 520.0832504544964)" d="M 102.45961427746 132.89155110165 C 101.05161427746 132.89155110165 99.86761427746 132.41155110165 98.90761427746 131.45155110165 C 97.94761427746 130.49155110165 97.46761427746 129.30755110165 97.46761427746 127.89955110165 L 97.46761427746 62.90755110165 C 97.46761427746 61.43555110165 97.94761427746 60.23555110165 98.90761427746 59.30755110165 C 99.86761427746 58.37955110165 101.05161427746 57.91555110165 102.45961427746 57.91555110165 L 119.83561427746 57.91555110165 C 125.33961427746 57.91555110165 130.34761427746 58.82755110165 134.85961427746 60.65155110165 C 139.37161427746 62.47555110165 143.29161427746 65.06755110165 146.61961427746 68.42755110165 C 149.94761427746 71.78755110165 152.50761427746 75.73955110165 154.29961427746 80.28355110165 C 156.09161427746 84.82755110165 156.98761427746 89.85155110165 156.98761427746 95.35555110165 C 156.98761427746 100.85955110165 156.09161427746 105.89955110165 154.29961427746 110.47555110165 C 152.50761427746 115.05155110165 149.94761427746 119.01955110165 146.61961427746 122.37955110165 C 143.29161427746 125.73955110165 139.37161427746 128.33155110165 134.85961427746 130.15555110165 C 130.34761427746 131.97955110165 125.33961427746 132.89155110165 119.83561427746 132.89155110165 L 102.45961427746 132.89155110165 Z M 107.45161427746 124.05955110165 L 119.83561427746 124.05955110165 C 125.21161427746 124.05955110165 129.96361427746 122.82755110165 134.09161427746 120.36355110165 C 138.21961427746 117.89955110165 141.46761427746 114.50755110165 143.83561427746 110.18755110165 C 146.20361427746 105.86755110165 147.38761427746 100.92355110165 147.38761427746 95.35555110165 C 147.38761427746 89.72355110165 146.20361427746 84.76355110165 143.83561427746 80.47555110165 C 141.46761427746 76.18755110165 138.21961427746 72.82755110165 134.09161427746 70.39555110165 C 129.96361427746 67.96355110165 125.21161427746 66.74755110165 119.83561427746 66.74755110165 L 107.45161427746 66.74755110165 L 107.45161427746 124.05955110165 Z M 188.76361427746 133.27555110165 C 184.09161427746 133.27555110165 179.89961427746 132.10755110165 176.18761427746 129.77155110165 C 172.47561427746 127.43555110165 169.54761427746 124.26755110165 167.40361427746 120.26755110165 C 165.25961427746 116.26755110165 164.18761427746 111.73955110165 164.18761427746 106.68355110165 C 164.18761427746 101.62755110165 165.35561427746 97.08355110165 167.69161427746 93.05155110165 C 170.02761427746 89.01955110165 173.19561427746 85.83555110165 177.19561427746 83.49955110165 C 181.19561427746 81.16355110165 185.69161427746 79.99555110165 190.68361427746 79.99555110165 C 195.67561427746 79.99555110165 200.15561427746 81.16355110165 204.12361427746 83.49955110165 C 208.09161427746 85.83555110165 211.24361427746 89.01955110165 213.57961427746 93.05155110165 C 215.91561427746 97.08355110165 217.08361427746 101.62755110165 217.08361427746 106.68355110165 L 217.08361427746 128.09155110165 C 217.08361427746 129.49955110165 216.61961427746 130.66755110165 215.69161427746 131.59555110165 C 214.76361427746 132.52355110165 213.59561427746 132.98755110165 212.18761427746 132.98755110165 C 210.77961427746 132.98755110165 209.61161427746 132.52355110165 208.68361427746 131.59555110165 C 207.75561427746 130.66755110165 207.29161427746 129.49955110165 207.29161427746 128.09155110165 L 207.29161427746 124.53955110165 C 205.05161427746 127.22755110165 202.34761427746 129.35555110165 199.17961427746 130.92355110165 C 196.01161427746 132.49155110165 192.53961427746 133.27555110165 188.76361427746 133.27555110165 Z M 190.68361427746 124.63555110165 C 193.94761427746 124.63555110165 196.85961427746 123.85155110165 199.41961427746 122.28355110165 C 201.97961427746 120.71555110165 203.99561427746 118.57155110165 205.46761427746 115.85155110165 C 206.93961427746 113.13155110165 207.67561427746 110.07555110165 207.67561427746 106.68355110165 C 207.67561427746 103.22755110165 206.93961427746 100.13955110165 205.46761427746 97.41955110165 C 203.99561427746 94.69955110165 201.97961427746 92.55555110165 199.41961427746 90.98755110165 C 196.85961427746 89.41955110165 193.94761427746 88.63555110165 190.68361427746 88.63555110165 C 187.48361427746 88.63555110165 184.58761427746 89.41955110165 181.99561427746 90.98755110165 C 179.40361427746 92.55555110165 177.35561427746 94.69955110165 175.85161427746 97.41955110165 C 174.34761427746 100.13955110165 173.59561427746 103.22755110165 173.59561427746 106.68355110165 C 173.59561427746 110.07555110165 174.34761427746 113.13155110165 175.85161427746 115.85155110165 C 177.35561427746 118.57155110165 179.40361427746 120.71555110165 181.99561427746 122.28355110165 C 184.58761427746 123.85155110165 187.48361427746 124.63555110165 190.68361427746 124.63555110165 Z M 232.82761427746 132.89155110165 C 231.41961427746 132.89155110165 230.23561427746 132.41155110165 229.27561427746 131.45155110165 C 228.31561427746 130.49155110165 227.83561427746 129.30755110165 227.83561427746 127.89955110165 L 227.83561427746 62.90755110165 C 227.83561427746 61.43555110165 228.31561427746 60.23555110165 229.27561427746 59.30755110165 C 230.23561427746 58.37955110165 231.41961427746 57.91555110165 232.82761427746 57.91555110165 L 250.20361427746 57.91555110165 C 255.70761427746 57.91555110165 260.71561427746 58.82755110165 265.22761427746 60.65155110165 C 269.73961427746 62.47555110165 273.65961427746 65.06755110165 276.98761427746 68.42755110165 C 280.31561427746 71.78755110165 282.87561427746 75.73955110165 284.66761427746 80.28355110165 C 286.45961427746 84.82755110165 287.35561427746 89.85155110165 287.35561427746 95.35555110165 C 287.35561427746 100.85955110165 286.45961427746 105.89955110165 284.66761427746 110.47555110165 C 282.87561427746 115.05155110165 280.31561427746 119.01955110165 276.98761427746 122.37955110165 C 273.65961427746 125.73955110165 269.73961427746 128.33155110165 265.22761427746 130.15555110165 C 260.71561427746 131.97955110165 255.70761427746 132.89155110165 250.20361427746 132.89155110165 L 232.82761427746 132.89155110165 Z M 237.81961427746 124.05955110165 L 250.20361427746 124.05955110165 C 255.57961427746 124.05955110165 260.33161427746 122.82755110165 264.45961427746 120.36355110165 C 268.58761427746 117.89955110165 271.83561427746 114.50755110165 274.20361427746 110.18755110165 C 276.57161427746 105.86755110165 277.75561427746 100.92355110165 277.75561427746 95.35555110165 C 277.75561427746 89.72355110165 276.57161427746 84.76355110165 274.20361427746 80.47555110165 C 271.83561427746 76.18755110165 268.58761427746 72.82755110165 264.45961427746 70.39555110165 C 260.33161427746 67.96355110165 255.57961427746 66.74755110165 250.20361427746 66.74755110165 L 237.81961427746 66.74755110165 L 237.81961427746 124.05955110165 Z M 303.09961427746 132.89155110165 C 301.69161427746 132.89155110165 300.52361427746 132.42755110165 299.59561427746 131.49955110165 C 298.66761427746 130.57155110165 298.20361427746 129.40355110165 298.20361427746 127.99555110165 L 298.20361427746 85.27555110165 C 298.20361427746 83.80355110165 298.66761427746 82.61955110165 299.59561427746 81.72355110165 C 300.52361427746 80.82755110165 301.69161427746 80.37955110165 303.09961427746 80.37955110165 C 304.57161427746 80.37955110165 305.75561427746 80.82755110165 306.65161427746 81.72355110165 C 307.54761427746 82.61955110165 307.99561427746 83.80355110165 307.99561427746 85.27555110165 L 307.99561427746 127.99555110165 C 307.99561427746 129.40355110165 307.54761427746 130.57155110165 306.65161427746 131.49955110165 C 305.75561427746 132.42755110165 304.57161427746 132.89155110165 303.09961427746 132.89155110165 Z M 303.09961427746 71.83555110165 C 301.37161427746 71.83555110165 299.88361427746 71.21155110165 298.63561427746 69.96355110165 C 297.38761427746 68.71555110165 296.76361427746 67.22755110165 296.76361427746 65.49955110165 C 296.76361427746 63.77155110165 297.38761427746 62.28355110165 298.63561427746 61.03555110165 C 299.88361427746 59.78755110165 301.37161427746 59.16355110165 303.09961427746 59.16355110165 C 304.82761427746 59.16355110165 306.31561427746 59.78755110165 307.56361427746 61.03555110165 C 308.81161427746 62.28355110165 309.43561427746 63.77155110165 309.43561427746 65.49955110165 C 309.43561427746 67.22755110165 308.81161427746 68.71555110165 307.56361427746 69.96355110165 C 306.31561427746 71.21155110165 304.82761427746 71.83555110165 303.09961427746 71.83555110165 Z M 327.38761427746 132.89155110165 C 325.97961427746 132.89155110165 324.79561427746 132.41155110165 323.83561427746 131.45155110165 C 322.87561427746 130.49155110165 322.39561427746 129.30755110165 322.39561427746 127.89955110165 L 322.39561427746 62.90755110165 C 322.39561427746 61.43555110165 322.87561427746 60.23555110165 323.83561427746 59.30755110165 C 324.79561427746 58.37955110165 325.97961427746 57.91555110165 327.38761427746 57.91555110165 C 329.30761427746 57.91555110165 330.77961427746 58.81155110165 331.80361427746 60.60355110165 L 360.31561427746 117.72355110165 L 388.05961427746 60.60355110165 C 389.08361427746 58.81155110165 390.55561427746 57.91555110165 392.47561427746 57.91555110165 C 393.88361427746 57.91555110165 395.06761427746 58.37955110165 396.02761427746 59.30755110165 C 396.98761427746 60.23555110165 397.46761427746 61.43555110165 397.46761427746 62.90755110165 L 397.46761427746 127.89955110165 C 397.46761427746 129.30755110165 396.97161427746 130.49155110165 395.97961427746 131.45155110165 C 394.98761427746 132.41155110165 393.81961427746 132.89155110165 392.47561427746 132.89155110165 C 391.06761427746 132.89155110165 389.88361427746 132.41155110165 388.92361427746 131.45155110165 C 387.96361427746 130.49155110165 387.48361427746 129.30755110165 387.48361427746 127.89955110165 L 387.48361427746 80.18755110165 L 364.25161427746 127.51555110165 C 363.16361427746 129.17955110165 361.72361427746 130.01155110165 359.93161427746 130.01155110165 C 357.81961427746 130.01155110165 356.28361427746 129.01955110165 355.32361427746 127.03555110165 L 332.37961427746 81.05155110165 L 332.37961427746 127.89955110165 C 332.37961427746 129.30755110165 331.89961427746 130.49155110165 330.93961427746 131.45155110165 C 329.97961427746 132.41155110165 328.79561427746 132.89155110165 327.38761427746 132.89155110165 Z M 432.79561427746 133.27555110165 C 428.12361427746 133.27555110165 423.93161427746 132.10755110165 420.21961427746 129.77155110165 C 416.50761427746 127.43555110165 413.57961427746 124.26755110165 411.43561427746 120.26755110165 C 409.29161427746 116.26755110165 408.21961427746 111.73955110165 408.21961427746 106.68355110165 C 408.21961427746 101.62755110165 409.38761427746 97.08355110165 411.72361427746 93.05155110165 C 414.05961427746 89.01955110165 417.22761427746 85.83555110165 421.22761427746 83.49955110165 C 425.22761427746 81.16355110165 429.72361427746 79.99555110165 434.71561427746 79.99555110165 C 439.70761427746 79.99555110165 444.18761427746 81.16355110165 448.15561427746 83.49955110165 C 452.12361427746 85.83555110165 455.27561427746 89.01955110165 457.61161427746 93.05155110165 C 459.94761427746 97.08355110165 461.11561427746 101.62755110165 461.11561427746 106.68355110165 L 461.11561427746 128.09155110165 C 461.11561427746 129.49955110165 460.65161427746 130.66755110165 459.72361427746 131.59555110165 C 458.79561427746 132.52355110165 457.62761427746 132.98755110165 456.21961427746 132.98755110165 C 454.81161427746 132.98755110165 453.64361427746 132.52355110165 452.71561427746 131.59555110165 C 451.78761427746 130.66755110165 451.32361427746 129.49955110165 451.32361427746 128.09155110165 L 451.32361427746 124.53955110165 C 449.08361427746 127.22755110165 446.37961427746 129.35555110165 443.21161427746 130.92355110165 C 440.04361427746 132.49155110165 436.57161427746 133.27555110165 432.79561427746 133.27555110165 Z M 434.71561427746 124.63555110165 C 437.97961427746 124.63555110165 440.89161427746 123.85155110165 443.45161427746 122.28355110165 C 446.01161427746 120.71555110165 448.02761427746 118.57155110165 449.49961427746 115.85155110165 C 450.97161427746 113.13155110165 451.70761427746 110.07555110165 451.70761427746 106.68355110165 C 451.70761427746 103.22755110165 450.97161427746 100.13955110165 449.49961427746 97.41955110165 C 448.02761427746 94.69955110165 446.01161427746 92.55555110165 443.45161427746 90.98755110165 C 440.89161427746 89.41955110165 437.97961427746 88.63555110165 434.71561427746 88.63555110165 C 431.51561427746 88.63555110165 428.61961427746 89.41955110165 426.02761427746 90.98755110165 C 423.43561427746 92.55555110165 421.38761427746 94.69955110165 419.88361427746 97.41955110165 C 418.37961427746 100.13955110165 417.62761427746 103.22755110165 417.62761427746 106.68355110165 C 417.62761427746 110.07555110165 418.37961427746 113.13155110165 419.88361427746 115.85155110165 C 421.38761427746 118.57155110165 423.43561427746 120.71555110165 426.02761427746 122.28355110165 C 428.61961427746 123.85155110165 431.51561427746 124.63555110165 434.71561427746 124.63555110165 Z M 475.70761427746 132.89155110165 C 472.50761427746 132.89155110165 470.90761427746 131.29155110165 470.90761427746 128.09155110165 L 470.90761427746 85.17955110165 C 470.90761427746 81.97955110165 472.50761427746 80.37955110165 475.70761427746 80.37955110165 C 478.90761427746 80.37955110165 480.50761427746 81.97955110165 480.50761427746 85.17955110165 L 480.50761427746 87.00355110165 C 482.42761427746 84.76355110165 484.77961427746 83.00355110165 487.56361427746 81.72355110165 C 490.34761427746 80.44355110165 493.37161427746 79.80355110165 496.63561427746 79.80355110165 C 500.47561427746 79.80355110165 503.33961427746 80.42755110165 505.22761427746 81.67555110165 C 507.11561427746 82.92355110165 507.83561427746 84.41155110165 507.38761427746 86.13955110165 C 507.06761427746 87.48355110165 506.42761427746 88.36355110165 505.46761427746 88.77955110165 C 504.50761427746 89.19555110165 503.38761427746 89.27555110165 502.10761427746 89.01955110165 C 498.01161427746 88.18755110165 494.33161427746 88.12355110165 491.06761427746 88.82755110165 C 487.80361427746 89.53155110165 485.22761427746 90.84355110165 483.33961427746 92.76355110165 C 481.45161427746 94.68355110165 480.50761427746 97.11555110165 480.50761427746 100.05955110165 L 480.50761427746 128.09155110165 C 480.50761427746 131.29155110165 478.90761427746 132.89155110165 475.70761427746 132.89155110165 Z"/></svg>